<svg width="15" height="15" viewBox="0 0 15 15" fill="none" xmlns="http://www.w3.org/2000/svg">
<path d="M12.048 14.2942H2.64975C1.35104 14.2942 0.290039 13.2332 0.290039 11.9345V2.53622C0.290039 1.23751 1.35104 0.176514 2.64975 0.176514H12.048C13.3467 0.176514 14.4077 1.23751 14.4077 2.53622V11.9345C14.4077 13.239 13.3525 14.2942 12.048 14.2942Z" fill="white"/>
<path d="M7.35165 10.8618C6.38342 10.8618 5.47316 10.4849 4.78902 9.80076C4.10488 9.11661 3.72803 8.20636 3.72803 7.23813C3.72803 6.26989 4.10488 5.35964 4.78902 4.6755C5.47316 3.99136 6.38342 3.6145 7.35165 3.6145C8.31989 3.6145 9.23014 3.99136 9.91428 4.6755C10.5984 5.35964 10.9753 6.26989 10.9753 7.23813C10.9753 8.20636 10.5984 9.11661 9.91428 9.80076C9.22434 10.4849 8.31989 10.8618 7.35165 10.8618ZM7.35165 4.38561C5.78045 4.38561 4.49913 5.66113 4.49913 7.23813C4.49913 8.80933 5.77465 10.0906 7.35165 10.0906C8.92286 10.0906 10.2042 8.81513 10.2042 7.23813C10.1984 5.66692 8.92286 4.38561 7.35165 4.38561Z" fill="#2B292E"/>
<path d="M11.6816 3.49551C12.0658 3.49551 12.3773 3.18401 12.3773 2.79976C12.3773 2.4155 12.0658 2.104 11.6816 2.104C11.2973 2.104 10.9858 2.4155 10.9858 2.79976C10.9858 3.18401 11.2973 3.49551 11.6816 3.49551Z" fill="#2B292E"/>
</svg>
