<svg width="17" height="17" viewBox="0 0 17 17" fill="none" xmlns="http://www.w3.org/2000/svg">
<path d="M3.83273 5.41626H0.391113V16.3914H3.83273V5.41626Z" fill="white"/>
<path d="M13.1426 5.17823C13.0157 5.16237 12.8809 5.15444 12.7461 5.14651C10.8191 5.06721 9.73266 6.20913 9.35202 6.70079C9.24893 6.8356 9.20135 6.9149 9.20135 6.9149V5.44785H5.9104V16.423H9.20135H9.35202C9.35202 15.3048 9.35202 14.1946 9.35202 13.0765C9.35202 12.4738 9.35202 11.8711 9.35202 11.2685C9.35202 10.523 9.29651 9.73004 9.66922 9.04806C9.98642 8.47711 10.5574 8.19163 11.1997 8.19163C13.1029 8.19163 13.1426 9.91243 13.1426 10.071C13.1426 10.079 13.1426 10.0869 13.1426 10.0869V16.4705H16.5842V9.30975C16.5842 6.85939 15.3392 5.41613 13.1426 5.17823Z" fill="white"/>
<path d="M2.11188 3.99672C3.21554 3.99672 4.11025 3.10202 4.11025 1.99836C4.11025 0.894696 3.21554 0 2.11188 0C1.00822 0 0.113525 0.894696 0.113525 1.99836C0.113525 3.10202 1.00822 3.99672 2.11188 3.99672Z" fill="white"/>
</svg>
