<svg width="104" height="125" viewBox="0 0 104 125" fill="none" xmlns="http://www.w3.org/2000/svg">
<g id="Frame 15">
<g id="Vector" filter="url(#filter0_f_27_99)">
<path d="M82.12 15.3807L82.1219 15.3822C94.0418 25.3704 101.855 40.4306 100.694 56.3688L100.694 56.3696C100.092 64.8153 97.6815 72.3736 94.0964 79.3675C89.7327 87.8721 83.8291 95.1985 77.5101 102.317C77.3696 102.476 77.2296 102.634 77.0898 102.791C76.6857 103.247 76.2835 103.701 75.8774 104.153L75.8761 104.154C75.469 104.611 75.0486 105.086 74.6153 105.576C71.537 109.058 67.8138 113.27 63.6706 116.446C58.94 120.072 53.8097 122.234 48.5833 120.561C44.2159 119.162 40.3994 116.347 36.8972 112.991C34.2585 110.463 31.8286 107.66 29.4814 104.952C28.7073 104.06 27.9422 103.177 27.1815 102.318L27.181 102.317C20.8588 95.1985 14.9553 87.8722 10.5949 79.3677C7.00974 72.3738 4.59966 64.8156 3.99698 56.37C3.31399 46.6713 5.92559 37.0103 10.963 28.7863C15.0584 22.1923 20.4501 16.5343 26.7978 12.1682L26.7999 12.1668C35.3036 6.26475 45.2488 2.79008 55.5404 3.75311C58.4902 4.03565 61.4044 4.62242 64.238 5.50441C70.7752 7.57332 76.8507 10.9286 82.12 15.3807ZM11.6433 57.5022C11.6433 67.9684 19.8778 76.4878 30.0712 76.4878C40.2677 76.4878 48.5023 67.9718 48.5023 57.5022C48.5023 47.0325 40.2644 38.5166 30.0712 38.5166C19.8778 38.5166 11.6433 47.036 11.6433 57.5022ZM56.2337 57.5022C56.2337 67.9685 64.4683 76.4878 74.6648 76.4878C84.8582 76.4878 93.0927 67.9717 93.0927 57.5022C93.0927 47.0327 84.8614 38.5166 74.6648 38.5166C64.4683 38.5166 56.2337 47.0359 56.2337 57.5022Z" stroke="#9662FF" stroke-width="1.1873"/>
</g>
<path id="Vector_2" d="M82.12 15.3807L82.1219 15.3822C94.0418 25.3704 101.855 40.4306 100.694 56.3688L100.694 56.3696C100.092 64.8153 97.6815 72.3736 94.0964 79.3675C89.7327 87.8721 83.8291 95.1985 77.5101 102.317C77.3696 102.476 77.2296 102.634 77.0898 102.791C76.6857 103.247 76.2835 103.701 75.8774 104.153L75.8761 104.154C75.469 104.611 75.0486 105.086 74.6153 105.576C71.537 109.058 67.8138 113.27 63.6706 116.446C58.94 120.072 53.8097 122.234 48.5833 120.561C44.2159 119.162 40.3994 116.347 36.8972 112.991C34.2585 110.463 31.8286 107.66 29.4814 104.952C28.7073 104.06 27.9422 103.177 27.1815 102.318L27.181 102.317C20.8588 95.1985 14.9553 87.8722 10.5949 79.3677C7.00974 72.3738 4.59966 64.8156 3.99698 56.37C3.31399 46.6713 5.92559 37.0103 10.963 28.7863C15.0584 22.1923 20.4501 16.5343 26.7978 12.1682L26.7999 12.1668C35.3036 6.26475 45.2488 2.79008 55.5404 3.75311C58.4902 4.03565 61.4044 4.62242 64.238 5.50441C70.7752 7.57332 76.8507 10.9286 82.12 15.3807ZM11.6433 57.5022C11.6433 67.9684 19.8778 76.4878 30.0712 76.4878C40.2677 76.4878 48.5023 67.9718 48.5023 57.5022C48.5023 47.0325 40.2644 38.5166 30.0712 38.5166C19.8778 38.5166 11.6433 47.036 11.6433 57.5022ZM56.2337 57.5022C56.2337 67.9685 64.4683 76.4878 74.6648 76.4878C84.8582 76.4878 93.0927 67.9717 93.0927 57.5022C93.0927 47.0327 84.8614 38.5166 74.6648 38.5166C64.4683 38.5166 56.2337 47.0359 56.2337 57.5022Z" stroke="#8141FF" stroke-width="1.1873"/>
</g>
<defs>
<filter id="filter0_f_27_99" x="0.921538" y="0.625396" width="102.855" height="123.479" filterUnits="userSpaceOnUse" color-interpolation-filters="sRGB">
<feFlood flood-opacity="0" result="BackgroundImageFix"/>
<feBlend mode="normal" in="SourceGraphic" in2="BackgroundImageFix" result="shape"/>
<feGaussianBlur stdDeviation="1.1873" result="effect1_foregroundBlur_27_99"/>
</filter>
</defs>
</svg>
