<svg width="17" height="15" viewBox="0 0 17 15" fill="none" xmlns="http://www.w3.org/2000/svg">
<path d="M0.348877 12.2707C2.09027 12.3687 3.61305 11.9616 5.09814 10.8836C3.59797 10.6273 2.55766 9.94129 1.99228 8.52405C2.42951 8.46374 2.81398 8.57682 3.26629 8.3959C1.78874 7.74758 0.831343 6.77512 0.793651 5.09403C1.26104 5.13172 1.61535 5.4408 2.1732 5.39557C0.81627 4.06879 0.401647 2.6214 1.2535 0.864925C2.67074 2.49324 4.32922 3.6014 6.35708 4.12156C6.47015 4.15172 6.57568 4.18187 6.68876 4.20448C7.20892 4.3251 7.82708 4.58141 8.1437 4.54372C8.68647 4.47587 8.1437 3.85018 8.2794 3.03602C8.70909 0.503077 11.4983 -0.650315 13.5639 0.834771C14.167 1.272 14.6419 1.26447 15.2374 1.00062C15.5465 0.864925 15.8631 0.729232 16.2325 0.570923C16.1496 1.29462 15.5917 1.69416 15.147 2.2294C15.6521 2.34247 16.0591 2.19924 16.5265 2.04847C16.3682 2.56863 15.9762 2.86263 15.6219 3.14909C15.2525 3.4431 15.1093 3.75217 15.0942 4.23464C14.868 11.5395 6.56815 17.1858 0.891655 12.6928C0.341344 12.2556 0.876573 12.6928 0.348877 12.2707Z" fill="white"/>
</svg>
