<svg width="17" height="17" viewBox="0 0 17 17" fill="none" xmlns="http://www.w3.org/2000/svg">
<path d="M16.0239 4.73867C15.6053 3.81389 15.0046 2.98361 14.2418 2.26808C13.479 1.55931 12.5947 0.999036 11.6092 0.607522C10.5899 0.202507 9.50987 0 8.39608 0C7.28229 0 6.20225 0.202507 5.18296 0.607522C4.19743 0.999036 3.31315 1.55256 2.55037 2.26808C1.78759 2.98361 1.18683 3.81389 0.768312 4.73867C0.336297 5.6972 0.113525 6.72324 0.113525 7.77628C0.113525 9.61909 0.802043 11.3877 2.06434 12.7917L1.38931 16.4706L4.98046 14.8708C6.05374 15.3298 7.19453 15.5593 8.38933 15.5593C9.50312 15.5593 10.5832 15.3568 11.6024 14.9518C12.588 14.5603 13.4723 14.0068 14.235 13.2912C14.9978 12.5757 15.5986 11.7454 16.0171 10.8206C16.4491 9.8621 16.6719 8.83607 16.6719 7.78303C16.6786 6.72324 16.4559 5.70395 16.0239 4.73867Z" fill="white"/>
<path d="M11.7578 9.32881C11.4068 9.15331 11.1503 9.0453 10.968 8.9778C10.8533 8.9373 10.5833 8.8158 10.4888 8.89005C10.1918 9.13306 9.87449 9.82158 9.53698 9.94984C8.69995 9.78783 7.92368 9.21406 7.31616 8.62679C7.04615 8.37028 6.54663 7.64125 6.43863 7.4455C6.41838 7.24299 6.78288 6.97298 6.86388 6.81772C7.28239 6.34521 6.96515 6.0482 6.91114 5.85244C6.81664 5.64993 6.65464 5.28542 6.51289 4.98841C6.39138 4.79265 6.36435 4.50239 6.14835 4.39439C5.23031 3.92187 4.70382 4.8669 4.48781 5.35967C3.18502 8.49853 11.0153 14.4725 12.6083 10.3548C12.6893 9.99709 12.6556 9.86208 12.5341 9.70008C12.2911 9.53132 12.0076 9.45707 11.7578 9.32881Z" fill="#2B292E"/>
</svg>
